<svg version="1.1" id="Layer_1" xmlns="http://www.w3.org/2000/svg" xmlns:xlink="http://www.w3.org/1999/xlink" x="0px" y="0px"
	 width="100%" viewBox="0 0 500 500" enable-background="new 0 0 500 500" xml:space="preserve">
<path fill="#50623A" opacity="1.000000" stroke="none" 
	d="
M280.000000,501.000000 
	C188.000015,501.000000 96.500015,500.975464 5.000191,501.095764 
	C1.576131,501.100250 0.903036,500.423828 0.905301,497.000000 
	C1.013778,333.000092 1.013756,169.000122 0.905337,5.000247 
	C0.903074,1.576947 1.575793,0.903021 4.999876,0.905286 
	C168.999756,1.013775 332.999725,1.013761 496.999634,0.905353 
	C500.422668,0.903091 501.096985,1.575428 501.094727,4.999756 
	C500.986206,168.999634 500.986237,332.999603 501.094604,496.999512 
	C501.096893,500.422272 500.425659,501.102448 497.000244,501.096405 
	C424.833679,500.968933 352.666809,501.000000 280.000000,501.000000 
z"/>
<path fill="#EBECD2" opacity="1.000000" stroke="none" 
	d="
M231.815430,96.806389 
	C240.804306,104.178978 249.443558,111.435410 258.570618,119.101562 
	C259.470520,113.997780 260.283997,109.384132 261.103119,104.738564 
	C262.722961,105.065918 262.986420,106.154495 263.230896,107.653870 
	C264.187408,111.197487 263.186584,114.718407 265.012085,118.129791 
	C265.205139,119.280922 264.890472,120.179497 265.865021,121.036339 
	C268.608521,124.070312 271.752838,126.311874 273.912903,129.860443 
	C274.146454,130.533173 274.292999,130.892395 274.677063,131.450928 
	C275.551270,132.468491 276.034760,133.339432 275.783386,134.725464 
	C275.432953,135.817474 275.407104,136.578003 276.300598,137.460480 
	C280.037262,144.509506 283.443634,151.412460 290.910156,155.420258 
	C299.348511,158.491898 300.660828,166.500137 293.854553,173.412537 
	C293.254425,173.685272 293.002045,173.754791 292.364838,173.821320 
	C289.943787,171.603790 287.575653,173.838623 285.091980,173.196014 
	C283.501587,172.176514 282.368652,171.074478 280.421143,170.500793 
	C279.985260,170.435516 279.972504,170.804993 279.955048,171.047760 
	C279.684662,172.800735 278.464081,173.447113 277.037964,174.376404 
	C274.253021,175.984695 271.831146,174.672165 269.437927,174.320404 
	C263.095215,173.388153 262.134277,173.568466 258.929535,179.204163 
	C255.482269,185.266312 252.440842,191.560699 247.603058,197.133316 
	C244.611130,201.427704 240.477798,204.138580 237.055298,207.945404 
	C236.859406,208.141937 236.524429,208.481216 236.493134,208.494644 
	C236.461838,208.508072 236.802444,208.184143 236.996490,207.994324 
	C240.511215,203.944244 245.129410,201.329788 247.929626,196.510910 
	C252.577530,189.453217 260.126648,187.388718 266.962799,184.786636 
	C274.857910,181.781464 282.753815,178.785675 290.547607,175.524734 
	C295.612366,173.405609 298.398956,169.076736 300.190247,164.302963 
	C301.935242,159.652481 296.768066,154.939545 290.575073,155.385284 
	C283.496582,151.149933 279.940430,144.474304 276.275238,137.439331 
	C275.934082,136.964569 275.780701,136.787613 275.580353,136.262955 
	C278.794647,130.952560 279.650696,136.809509 282.001465,137.450745 
	C282.668365,137.877823 283.007111,138.174301 283.534119,138.760696 
	C285.110626,148.509293 285.981567,149.017166 294.559784,144.354477 
	C300.822815,140.950241 307.219849,139.038040 313.014221,144.418839 
	C315.819672,147.024048 317.692688,150.026001 322.121643,148.258423 
	C322.662628,148.042542 323.595154,148.807800 325.643494,149.654785 
	C314.961853,150.385834 310.517853,156.879501 306.828491,164.582397 
	C302.710327,173.180679 295.473358,178.808655 287.229034,183.143311 
	C284.608246,184.521240 282.431580,185.612549 282.929443,189.242615 
	C283.203094,191.237457 282.087219,192.788437 279.312256,191.797668 
	C276.535370,192.307373 277.224274,188.658432 274.704407,188.669373 
	C267.345276,188.790405 263.902069,193.640182 260.903046,198.972046 
	C251.715866,215.305679 239.825607,229.505630 226.569473,242.632339 
	C224.684570,244.498871 222.704071,246.268890 220.467911,248.253082 
	C219.974869,248.174744 219.781754,247.926895 219.748871,247.235840 
	C223.589935,242.561081 227.278976,238.336655 230.943542,234.091110 
	C231.559769,233.377182 232.503784,232.541275 231.631897,231.570953 
	C230.681992,230.513840 229.827911,231.647430 229.094467,232.123138 
	C221.468307,237.069244 213.807159,241.969437 206.510406,247.952682 
	C205.939011,248.213806 205.670059,248.335999 205.059219,248.176300 
	C204.966522,246.565033 207.456482,245.577774 206.018539,244.261169 
	C204.724350,243.076187 203.453064,244.926361 202.401382,245.803268 
	C201.018051,246.956726 199.779266,248.283508 198.198532,249.749130 
	C197.438324,250.104599 197.044067,249.978104 196.851868,249.256378 
	C199.483078,244.498001 203.842087,241.905853 208.442551,237.867752 
	C194.578369,238.601959 181.970413,240.107635 169.667694,243.966812 
	C178.238800,238.608276 188.028275,237.779846 197.633392,235.501816 
	C195.519028,234.897049 193.404663,234.292282 191.145630,233.343903 
	C191.143784,232.853577 191.286621,232.706833 191.715042,232.673248 
	C204.412750,234.129044 215.763199,230.837265 226.797150,224.648712 
	C228.383301,225.742691 227.585892,226.831268 226.470566,228.063812 
	C226.249481,228.218842 225.838333,228.468567 225.559631,228.457443 
	C225.280930,228.446320 225.755524,228.486084 225.990112,228.364182 
	C227.697342,226.369492 229.884644,225.311386 231.732788,223.386032 
	C232.110504,223.022217 232.262009,222.881165 232.635345,222.532990 
	C233.006851,222.195892 233.156540,222.065918 233.520523,221.737640 
	C233.871948,221.405243 234.009064,221.271149 234.363373,220.953247 
	C234.729965,220.654861 234.879379,220.540283 235.240295,220.239548 
	C235.591202,219.927277 235.730576,219.801163 236.082336,219.487671 
	C236.438446,219.175217 236.582153,219.050186 237.234192,218.651062 
	C237.925186,218.295197 238.107864,218.213409 238.837799,217.820679 
	C240.405853,216.634552 241.338898,215.670227 242.444061,214.443848 
	C242.732208,214.028290 242.830170,213.856354 243.051331,213.426788 
	C243.290237,213.025818 243.405960,212.882477 243.914398,212.378510 
	C244.419800,211.885574 244.532501,211.753250 244.750824,211.384674 
	C244.746262,211.018188 244.636093,210.887985 244.318817,210.607574 
	C244.780121,209.209274 246.312531,208.267426 245.282196,205.975433 
	C232.408859,214.924316 220.334671,225.239700 204.629990,228.957825 
	C214.457779,223.058640 223.523483,216.253326 231.496078,208.033173 
	C232.191498,207.316162 232.925858,206.633636 233.581573,205.882263 
	C234.290115,205.070328 235.488205,204.201294 234.393875,203.047379 
	C233.504486,202.109604 232.588089,203.120850 231.800980,203.601044 
	C228.534576,205.593781 225.294281,207.629318 221.685730,209.747559 
	C218.160828,209.770782 215.467331,210.802277 213.169724,213.526947 
	C210.607132,214.694199 208.250351,215.576935 205.517517,216.528137 
	C204.683243,216.128677 204.485245,215.568741 204.777420,214.513550 
	C206.292404,211.797241 208.760300,211.143143 210.864502,210.034927 
	C228.560898,200.714828 242.121109,186.753021 254.505600,171.425980 
	C256.101624,169.450775 255.395599,168.203918 253.538727,167.871735 
	C250.025330,167.243195 247.560471,164.667969 244.326828,163.443893 
	C241.142929,162.238663 238.615585,159.134308 236.026779,156.788376 
	C233.262970,154.283859 238.862701,156.091522 238.357697,153.505280 
	C238.023438,152.667343 236.532227,153.058823 235.377930,152.105850 
	C234.851242,151.394760 234.883255,150.918015 235.397827,150.187195 
	C237.276917,148.544830 239.108337,149.442032 240.853195,149.497192 
	C245.121796,149.632141 249.268021,149.034470 253.222839,147.606171 
	C247.758423,149.867798 242.178543,149.197571 236.268524,148.471466 
	C235.505676,147.958633 235.196823,147.544693 235.026840,146.648392 
	C234.992630,143.598694 232.331375,144.183243 230.997437,143.120483 
	C228.527771,141.152878 226.202682,139.206070 224.735397,136.326691 
	C226.633987,135.278931 228.245682,137.150406 230.117874,135.851700 
	C227.359009,133.601440 224.224060,131.848572 222.698761,128.704041 
	C222.020142,127.304993 219.357544,125.852867 222.374908,123.798500 
	C223.574127,122.982010 221.829910,121.892769 221.160355,121.155441 
	C219.217346,119.015793 217.665833,116.641571 217.113129,113.816483 
	C216.846512,112.453674 215.290176,110.088852 219.052612,110.443962 
	C221.113007,110.638420 219.925873,108.782692 219.527771,107.974968 
	C218.047668,104.971977 217.193008,101.858910 217.010406,98.023216 
	C218.907257,99.307381 220.382706,100.306252 222.171829,101.439133 
	C223.025558,101.315987 223.381500,100.962700 223.425720,100.390022 
	C220.305588,94.884445 219.192551,88.536148 217.373093,81.826141 
	C219.936951,82.835831 220.527191,85.105431 222.209167,86.707924 
	C220.824448,87.955956 222.489883,88.367973 222.901550,89.315498 
	C224.264282,96.196182 228.921692,100.402611 233.660736,104.317871 
	C240.444000,109.922028 247.246201,115.519699 254.337723,120.745789 
	C246.892090,115.196991 239.710266,109.327515 232.789825,103.136353 
	C231.286987,101.791901 229.629761,100.601692 230.172058,97.878403 
	C230.605896,97.137039 230.997009,96.860542 231.815430,96.806389 
z"/>
<path fill="#EEEFD5" opacity="1.000000" stroke="none" 
	d="
M243.115707,340.800964 
	C242.752869,342.481781 242.548325,343.964813 242.557785,345.446442 
	C242.569901,347.341431 241.785645,348.079895 239.866043,348.052155 
	C238.051285,348.025909 237.098114,347.525208 237.113510,345.525726 
	C237.167175,338.553772 237.126053,331.581177 237.137924,324.608826 
	C237.139893,323.446381 237.082825,322.158783 238.734329,322.037872 
	C240.561935,321.904083 242.254349,321.785645 243.422455,323.857971 
	C245.825684,328.121460 248.482346,332.242157 251.981552,336.203094 
	C251.981552,332.484528 252.020370,328.765381 251.965042,325.047638 
	C251.937637,323.206177 252.071808,321.929840 254.547729,321.911377 
	C257.033691,321.892883 257.160675,323.211548 257.155334,325.016876 
	C257.137207,331.159149 256.952118,337.310669 257.227844,343.440796 
	C257.429291,347.919250 255.944763,349.218170 251.528717,347.130249 
	C248.288803,346.141113 248.146957,343.456879 247.444885,340.897278 
	C247.567413,340.554108 247.589462,340.490967 247.559204,340.476746 
	C246.153793,340.849457 244.671341,338.049713 243.115707,340.800964 
z"/>
<path fill="#EBECD2" opacity="1.000000" stroke="none" 
	d="
M196.133759,292.801636 
	C191.250458,298.997009 184.675018,296.615967 178.753525,296.924866 
	C177.174011,297.007233 177.127960,295.562408 177.125931,294.377106 
	C177.114258,287.561218 177.160675,280.744843 177.088806,273.929688 
	C177.066895,271.851990 177.747086,270.838837 179.952408,270.958679 
	C183.595779,271.156677 187.245621,271.235870 191.336914,271.468140 
	C192.505310,271.240936 193.136826,271.387085 193.744629,272.290619 
	C196.117645,275.819305 197.067932,279.122070 194.123505,282.389191 
	C192.913315,283.731995 193.829391,284.302795 194.583115,285.099060 
	C195.914246,286.505341 196.168121,288.255402 196.226547,290.431702 
	C196.694656,291.363098 196.750168,291.969666 196.133759,292.801636 
z"/>
<path fill="#E9EAD0" opacity="1.000000" stroke="none" 
	d="
M231.578659,270.628601 
	C237.999451,274.636017 238.883682,277.472900 235.802155,283.965973 
	C235.121246,286.171967 235.341965,288.077118 235.328720,289.952209 
	C235.777222,292.062897 236.596542,294.202179 237.477493,296.502319 
	C230.466934,298.928497 230.991974,292.532043 228.601608,289.131958 
	C227.446289,288.557587 226.884827,287.796417 226.129837,286.811768 
	C221.947067,287.291046 224.618622,290.483673 223.969696,292.493896 
	C223.394241,294.276520 224.986771,297.028870 221.214645,297.077301 
	C217.526062,297.124664 218.399307,294.553467 218.381607,292.595947 
	C218.319992,285.777557 218.382614,278.958069 218.410141,271.685181 
	C222.408905,267.340179 226.805237,269.132477 231.578659,270.628601 
z"/>
<path fill="#E9EAD0" opacity="1.000000" stroke="none" 
	d="
M245.100311,278.115753 
	C245.988037,275.334991 242.790939,271.279572 248.240250,270.932617 
	C258.689117,270.267456 263.568420,272.195648 264.114197,277.920715 
	C264.491516,281.878937 264.275208,285.902740 264.182037,289.893890 
	C264.112671,292.864655 262.391479,294.842499 259.775116,296.015930 
	C258.731689,296.483917 257.574097,296.804199 256.438110,296.942444 
	C245.174835,298.313354 245.100311,298.235321 245.100296,287.091431 
	C245.100296,284.261200 245.100311,281.431000 245.100311,278.115753 
z"/>
<path fill="#EBECD2" opacity="1.000000" stroke="none" 
	d="
M284.129547,297.447815 
	C279.775757,297.267700 275.659546,297.481110 272.951996,293.711731 
	C271.783539,292.085052 270.618713,289.804413 272.610565,288.455963 
	C274.022888,287.499908 276.380951,287.463745 277.270935,290.324249 
	C277.865479,292.235046 279.928528,292.720856 281.820953,292.683014 
	C283.346954,292.652527 284.819550,292.237549 285.140045,290.364807 
	C285.419098,288.734467 284.369904,287.897339 283.112305,287.346832 
	C281.142029,286.484344 279.078461,285.831787 277.122009,284.941772 
	C274.102600,283.568146 271.731598,281.628510 271.777405,277.550659 
	C271.304779,276.637177 271.249634,276.030212 271.866913,275.198151 
	C277.150360,269.851318 284.811401,269.164581 288.683563,273.794861 
	C290.096069,275.483917 292.909058,277.886200 288.347351,279.989746 
	C287.763458,280.289795 287.519531,280.490417 287.260406,280.670776 
	C286.385284,281.279846 285.488739,281.187408 284.583130,280.746307 
	C285.335968,281.295837 286.361633,281.425446 286.927765,282.259735 
	C287.193939,282.651978 287.397034,283.080811 287.801880,283.773102 
	C292.156189,289.177185 292.015717,291.561279 287.049377,296.160553 
	C286.622040,297.883881 285.578918,297.802368 284.129547,297.447815 
z"/>
<path fill="#EEEFD5" opacity="1.000000" stroke="none" 
	d="
M280.162354,347.664551 
	C265.980682,349.432648 265.980682,349.432648 265.980713,335.712921 
	C265.980743,332.552002 266.225616,329.367035 265.917328,326.236481 
	C265.555725,322.564667 267.092102,321.580811 270.448639,321.941498 
	C273.249146,322.242432 276.086731,322.198364 279.354431,322.396851 
	C283.104645,321.306915 283.863037,323.756622 284.766510,326.372620 
	C284.829865,327.330139 284.907532,327.893951 285.074890,328.728577 
	C287.762695,332.607208 287.550720,336.369049 285.471985,340.608459 
	C284.759674,342.077332 284.354401,343.154022 283.844788,344.561096 
	C283.799438,347.122833 282.636169,347.986023 280.162354,347.664551 
z"/>
<path fill="#586942" opacity="1.000000" stroke="none" 
	d="
M263.314880,119.233276 
	C260.711761,115.575661 260.821075,112.144867 263.151978,108.321541 
	C264.299133,108.273170 265.274017,108.563065 266.546448,108.921814 
	C267.286621,109.148994 267.645386,109.415619 268.043396,110.121948 
	C268.334106,110.857590 268.415009,111.294510 268.362122,111.990829 
	C268.314789,108.592010 267.353790,105.019966 267.503754,101.369957 
	C267.545380,100.356537 267.843140,99.354065 268.932220,98.953377 
	C270.185699,98.492218 270.723969,99.378548 271.173370,100.308823 
	C277.013733,112.398979 281.876556,124.787651 282.655212,138.710327 
	C280.578003,139.149841 280.751587,138.956131 278.762329,137.173599 
	C277.646912,136.174103 277.383392,132.805725 274.903503,135.514465 
	C278.186249,133.956604 274.772400,133.248779 273.965942,131.507492 
	C273.342743,131.824310 273.006378,131.884232 272.921570,131.159790 
	C270.399841,128.305908 267.397614,125.750893 263.764435,123.452621 
	C263.501404,121.954430 263.516235,120.738579 263.314880,119.233276 
z"/>
<path fill="#EEEFD5" opacity="1.000000" stroke="none" 
	d="
M213.199188,347.614807 
	C206.696930,348.331360 206.714737,348.337006 208.578766,342.456909 
	C210.127136,337.572540 211.627121,332.672852 213.162415,327.394348 
	C212.222443,325.600861 212.722351,324.441498 214.195282,323.285522 
	C219.865799,320.646362 221.494217,321.247345 223.144775,326.353088 
	C224.459229,330.419128 225.768723,334.486725 227.247925,338.868103 
	C229.106873,339.589203 229.415497,340.804901 229.031982,342.654755 
	C228.272873,344.647583 230.907379,346.792023 228.858200,347.739563 
	C226.611420,348.778564 224.483597,348.133698 223.156693,345.073029 
	C222.110092,342.658936 219.009415,344.363159 216.430756,344.058258 
	C214.841949,345.019012 215.010086,346.863922 213.199188,347.614807 
z"/>
<path fill="#EEEFD5" opacity="1.000000" stroke="none" 
	d="
M201.275345,347.576721 
	C196.126663,347.922577 191.298843,347.817841 186.490479,348.075897 
	C183.516556,348.235565 182.857666,347.028076 182.929733,344.320557 
	C183.093384,338.172821 182.971039,332.017700 182.987228,325.865662 
	C182.992279,323.945160 182.438187,321.839417 185.753387,321.915283 
	C188.788391,321.984741 188.215454,323.951538 188.238129,325.650757 
	C188.295822,329.973114 188.492935,334.313080 188.190353,338.614777 
	C187.931366,342.296661 189.064392,343.844269 192.875717,343.426025 
	C195.173935,343.173889 197.525513,343.408173 200.305908,343.431946 
	C202.337387,344.434143 202.315216,345.780884 201.275345,347.576721 
z"/>
<path fill="#E3E5CA" opacity="1.000000" stroke="none" 
	d="
M282.739807,139.049927 
	C280.373047,125.384949 276.112732,112.444153 269.280518,99.290268 
	C268.131470,107.309311 270.344086,113.883469 271.353882,120.838249 
	C269.390167,117.907204 267.426422,114.976166 265.752167,111.892693 
	C266.208893,111.645317 266.376160,111.550362 266.729523,111.234940 
	C266.953918,110.560715 266.992279,110.106964 266.937317,109.321930 
	C266.551270,104.050186 267.250641,99.072670 266.303864,94.158806 
	C266.151306,93.367043 265.688782,92.493622 266.817932,92.131668 
	C267.811066,91.813309 268.362091,92.602402 268.726654,93.319542 
	C270.900391,97.595573 273.227448,101.809677 275.120056,106.209328 
	C279.522003,116.442207 282.366638,127.131508 283.788177,138.599396 
	C283.483154,139.046387 283.213135,139.062057 282.739807,139.049927 
z"/>
<path fill="#E3E5CA" opacity="1.000000" stroke="none" 
	d="
M209.931183,274.339172 
	C209.932755,281.114349 209.888794,287.421631 209.954910,293.727753 
	C209.977203,295.853119 209.613174,297.166870 206.996597,297.104156 
	C204.614227,297.047058 204.312515,295.777832 204.319122,293.919281 
	C204.342728,287.280640 204.322189,280.641846 204.334366,274.003113 
	C204.337204,272.458527 204.388733,271.019348 206.585587,270.930817 
	C208.758850,270.843292 210.200165,271.309021 209.931183,274.339172 
z"/>
<path fill="#E3E5CA" opacity="1.000000" stroke="none" 
	d="
M204.598450,214.047882 
	C205.036514,214.662842 205.065582,215.215393 205.118057,216.182251 
	C199.506760,218.707596 193.587479,219.385284 187.659317,219.827545 
	C185.865753,219.961349 183.190933,221.212585 182.666687,217.667877 
	C182.565231,216.981918 181.363647,216.813385 180.516754,217.259430 
	C179.582047,217.751724 179.617249,218.690582 179.847885,219.408997 
	C180.227356,220.591003 181.395142,220.757401 182.294952,220.268265 
	C189.136398,216.549271 197.033844,216.564056 204.598450,214.047882 
z"/>
<path fill="#50623A" opacity="1.000000" stroke="none" 
	d="
M231.885162,270.605347 
	C227.760284,270.979645 223.520721,271.015411 218.851715,271.141296 
	C217.306610,269.798096 217.928024,268.841431 219.250198,268.004822 
	C222.588913,265.892273 228.821243,267.003693 231.885162,270.605347 
z"/>
<path fill="#50623A" opacity="1.000000" stroke="none" 
	d="
M288.000061,283.643616 
	C285.538605,283.072845 283.078094,282.103485 280.615173,281.140350 
	C279.059875,280.532135 277.392181,279.984680 277.237946,277.966553 
	C277.151550,276.836060 277.988892,276.197174 278.941772,275.773651 
	C280.794739,274.950073 282.474731,275.368134 284.086060,276.472260 
	C285.410675,277.379913 285.027344,279.862122 287.637482,279.986145 
	C288.000000,281.135834 288.000000,282.191742 288.000061,283.643616 
z"/>
<path fill="#50623A" opacity="1.000000" stroke="none" 
	d="
M285.521423,340.933105 
	C285.125977,337.305237 285.087067,333.609894 285.106323,329.456909 
	C290.214111,331.508972 290.562103,337.297089 285.521423,340.933105 
z"/>
<path fill="#E3E5CA" opacity="1.000000" stroke="none" 
	d="
M213.310883,213.772034 
	C212.567581,213.313614 211.724808,212.621155 211.843887,212.347992 
	C213.052521,209.575424 218.244278,207.939117 221.199631,209.586975 
	C218.770645,211.141510 216.214249,212.437073 213.310883,213.772034 
z"/>
<path fill="#E9EAD0" opacity="1.000000" stroke="none" 
	d="
M228.241013,224.269180 
	C231.583191,222.046432 234.716049,219.356567 238.149048,216.498627 
	C238.672165,216.336441 238.916824,216.372314 239.358032,216.722748 
	C239.614136,217.533188 239.570160,218.019714 239.189880,218.785400 
	C238.957260,219.073914 239.004135,219.002609 239.036926,218.975311 
	C238.814316,219.189774 238.563278,219.435959 238.136627,219.879333 
	C237.957336,220.072754 238.005035,220.005188 238.038971,219.981537 
	C237.813751,220.194092 237.561127,220.437088 237.136414,220.879852 
	C236.957855,221.072876 237.008789,221.014221 237.043091,220.996033 
	C236.606461,221.405579 235.993423,221.488983 235.174072,221.843719 
	C234.930511,222.024780 234.979446,221.969727 235.012817,221.954147 
	C234.807480,222.188248 234.565964,222.435211 234.138657,222.862793 
	C233.956085,223.046585 233.986893,222.986511 234.015045,222.967896 
	C232.443024,224.187088 230.895844,225.598312 228.241013,224.269180 
z"/>
<path fill="#E3E5CA" opacity="1.000000" stroke="none" 
	d="
M236.260605,150.669785 
	C235.849152,151.146378 235.608932,151.345566 235.213196,151.722137 
	C232.349289,150.973938 230.316055,149.319992 228.708481,146.245209 
	C230.862152,146.245209 232.538971,146.245209 234.634872,146.247574 
	C235.360550,146.475021 235.667114,146.700119 236.207184,147.089157 
	C237.009903,148.299164 237.110977,149.342560 236.260605,150.669785 
z"/>
<path fill="#E3E5CA" opacity="1.000000" stroke="none" 
	d="
M219.620743,246.966370 
	C219.953186,247.064117 219.997284,247.335632 220.104675,248.014893 
	C218.222672,251.521561 215.129852,253.144836 212.185303,255.112030 
	C212.254639,255.741653 212.164688,256.013214 212.174957,255.867554 
	C215.472122,253.397476 216.127975,249.186676 219.620743,246.966370 
z"/>
<path fill="#73815D" opacity="1.000000" stroke="none" 
	d="
M227.733414,223.899994 
	C230.102737,227.078400 231.301971,223.295609 233.544525,223.052490 
	C232.476654,226.426117 228.908661,227.357941 225.746033,229.338531 
	C225.103836,229.499268 224.786728,229.540070 224.589813,229.116608 
	C225.572678,227.207657 228.465012,227.497711 227.516953,224.642456 
	C227.119507,224.109711 227.289108,223.927963 227.733414,223.899994 
z"/>
<path fill="#50623A" opacity="1.000000" stroke="none" 
	d="
M201.211990,348.028931 
	C200.932571,346.638702 200.918869,345.403320 200.831940,343.803955 
	C202.523880,342.219818 203.532089,343.074524 203.746933,344.810913 
	C203.943314,346.397949 204.507233,348.607544 201.211990,348.028931 
z"/>
<path fill="#E3E5CA" opacity="1.000000" stroke="none" 
	d="
M232.000610,96.631821 
	C231.896484,97.117378 231.637711,97.324455 231.210510,97.717117 
	C226.790253,98.264809 225.206161,96.827309 224.057053,90.980835 
	C224.437546,90.333786 224.645020,90.109589 225.251068,90.111427 
	C227.711823,92.338669 229.774002,94.339890 232.000610,96.631821 
z"/>
<path fill="#50623A" opacity="1.000000" stroke="none" 
	d="
M243.332901,340.985046 
	C242.422623,338.767883 242.274216,336.543640 243.063217,333.909271 
	C245.273712,335.529205 245.956268,337.914948 247.385529,340.150330 
	C246.287125,340.631897 245.045288,340.801300 243.332901,340.985046 
z"/>
<path fill="#50623A" opacity="1.000000" stroke="none" 
	d="
M274.588715,188.892334 
	C277.655273,186.375549 276.916412,190.941879 278.888550,191.511566 
	C278.652740,192.882187 278.239471,194.114441 276.845032,194.001816 
	C275.176483,193.867065 275.680969,192.449234 275.546356,191.383759 
	C275.449890,190.620010 275.072510,189.891739 274.588715,188.892334 
z"/>
<path fill="#E3E5CA" opacity="1.000000" stroke="none" 
	d="
M196.684357,249.115540 
	C197.160828,249.175583 197.365189,249.411682 197.749817,249.800247 
	C196.699005,251.993423 195.479248,254.024338 193.555969,257.226624 
	C193.722351,253.244446 195.151367,251.307602 196.684357,249.115540 
z"/>
<path fill="#50623A" opacity="1.000000" stroke="none" 
	d="
M284.785645,326.334961 
	C283.432953,325.288177 282.317566,323.579132 280.064148,322.673981 
	C284.097748,319.772003 284.697876,322.486176 284.785645,326.334961 
z"/>
<path fill="#50623A" opacity="1.000000" stroke="none" 
	d="
M247.465057,340.976746 
	C248.731384,342.454895 249.895370,344.355652 251.136322,346.587524 
	C247.444870,346.812469 246.773163,344.545868 247.465057,340.976746 
z"/>
<path fill="#50623A" opacity="1.000000" stroke="none" 
	d="
M280.081665,347.781799 
	C280.941559,346.753052 282.071381,345.951752 283.470795,345.020935 
	C284.498383,345.872375 284.922638,346.921875 283.893219,347.935425 
	C282.782379,349.029083 281.550720,348.823578 280.081665,347.781799 
z"/>
<path fill="#50623A" opacity="1.000000" stroke="none" 
	d="
M213.101105,347.858704 
	C213.183350,346.147766 212.898499,344.188324 215.647736,344.064697 
	C215.642593,345.786743 216.564758,348.314056 213.101105,347.858704 
z"/>
<path fill="#50623A" opacity="1.000000" stroke="none" 
	d="
M235.216827,289.565918 
	C233.858688,288.130890 231.591919,286.321777 235.334717,284.425720 
	C236.374237,285.934296 236.624405,287.594025 235.216827,289.565918 
z"/>
<path fill="#50623A" opacity="1.000000" stroke="none" 
	d="
M174.570190,218.566040 
	C174.358734,220.583618 173.099319,219.821716 172.101883,219.567322 
	C171.881454,219.511124 171.601944,218.620636 171.703903,218.534729 
	C172.531662,217.837234 173.476212,218.019562 174.570190,218.566040 
z"/>
<path fill="#50623A" opacity="1.000000" stroke="none" 
	d="
M214.244293,323.232910 
	C214.279800,324.296265 213.965637,325.401764 213.413879,326.757996 
	C210.084000,325.123199 211.462402,324.097778 214.244293,323.232910 
z"/>
<path fill="#50623A" opacity="1.000000" stroke="none" 
	d="
M229.113251,342.876068 
	C228.392288,341.959259 227.961914,340.912109 227.473511,339.523773 
	C229.289658,339.694275 232.028015,339.723785 229.113251,342.876068 
z"/>
<path fill="#50623A" opacity="1.000000" stroke="none" 
	d="
M215.321991,74.723236 
	C214.744461,75.514191 214.150772,75.585571 213.766342,74.910866 
	C213.620712,74.655266 213.827286,73.913330 214.084015,73.769730 
	C214.751053,73.396599 215.241425,73.733948 215.321991,74.723236 
z"/>
<path fill="#E3E5CA" opacity="1.000000" stroke="none" 
	d="
M222.158813,90.136780 
	C221.700836,88.939651 220.085815,88.065895 222.153656,87.059296 
	C223.353989,87.964058 224.322754,88.916779 225.470581,90.103470 
	C225.493958,90.490990 225.338257,90.644524 224.948380,91.027687 
	C223.714081,91.569534 222.986237,91.098885 222.158813,90.136780 
z"/>
<path fill="#50623A" opacity="1.000000" stroke="none" 
	d="
M207.277023,262.321655 
	C206.486084,261.743958 206.414963,261.150177 207.089401,260.765594 
	C207.344818,260.619934 208.086807,260.826721 208.230423,261.083466 
	C208.603485,261.750427 208.266586,262.241150 207.277023,262.321655 
z"/>
<path fill="#50623A" opacity="1.000000" stroke="none" 
	d="
M211.950836,255.608002 
	C212.275177,255.450317 212.271454,255.511078 212.308014,255.490601 
	C211.748657,256.322479 211.843262,257.701447 210.482941,257.946533 
	C210.361237,257.968475 209.997284,257.419220 210.025909,257.387390 
	C210.533585,256.823578 211.084732,256.298828 211.950836,255.608002 
z"/>
<path fill="#50623A" opacity="1.000000" stroke="none" 
	d="
M166.963348,246.978760 
	C166.325027,247.315903 165.812668,247.257507 165.820816,246.674759 
	C165.824997,246.376007 166.354156,245.846741 166.654587,245.840622 
	C167.236877,245.828796 167.301086,246.338989 166.963348,246.978760 
z"/>
<path fill="#50623A" opacity="1.000000" stroke="none" 
	d="
M284.003754,297.501770 
	C284.577026,297.011047 285.377502,296.748932 286.489319,296.427399 
	C286.459412,297.794067 285.928406,298.862244 284.003754,297.501770 
z"/>
<path fill="#E3E5CA" opacity="1.000000" stroke="none" 
	d="
M204.398727,248.071442 
	C204.965866,247.926651 205.214386,247.958908 205.835434,248.041382 
	C205.191055,248.860825 204.795441,250.866776 203.101044,250.130508 
	C202.548813,249.890579 203.634750,248.860916 204.398727,248.071442 
z"/>
<path fill="#50623A" opacity="1.000000" stroke="none" 
	d="
M191.916504,232.611954 
	C191.835403,232.828674 191.670212,232.870911 191.252991,232.956726 
	C190.787888,232.706711 190.574799,232.413132 190.361725,232.119537 
	C190.967834,231.689514 191.441803,231.870636 191.916504,232.611954 
z"/>
<path fill="#50623A" opacity="1.000000" stroke="none" 
	d="
M226.140015,286.817505 
	C227.284607,286.324860 227.872025,287.047363 228.274811,288.503174 
	C227.425049,288.595093 226.641724,288.119629 226.140015,286.817505 
z"/>
<path fill="#50623A" opacity="1.000000" stroke="none" 
	d="
M196.107452,292.894287 
	C195.942429,292.437958 196.011002,291.873932 196.181091,291.044067 
	C196.992935,291.427582 197.339005,292.087524 196.107452,292.894287 
z"/>
<path fill="#50623A" opacity="1.000000" stroke="none" 
	d="
M271.893555,275.105713 
	C272.059540,275.562653 271.991852,276.127289 271.820587,276.957214 
	C271.006775,276.572479 270.661560,275.912079 271.893555,275.105713 
z"/>
<path fill="#50623A" opacity="1.000000" stroke="none" 
	d="
M193.753723,272.370575 
	C193.280090,272.398804 192.759659,272.158691 192.010162,271.744812 
	C192.660461,270.887268 193.332611,270.954773 193.753723,272.370575 
z"/>
<path fill="#E3E5CA" opacity="1.000000" stroke="none" 
	d="
M201.946136,251.745117 
	C201.743134,252.304047 201.486328,252.608139 201.229523,252.912231 
	C201.110275,252.682404 200.839310,252.308441 200.897507,252.247192 
	C201.180801,251.948975 201.552139,251.734421 201.946136,251.745117 
z"/>
<path fill="#E9EAD0" opacity="1.000000" stroke="none" 
	d="
M241.328644,213.794159 
	C241.684311,212.992004 242.071716,212.552322 242.718323,211.974457 
	C243.144745,212.011307 243.312012,212.186310 243.476700,212.724945 
	C243.375320,213.578690 243.125549,213.978088 242.388748,214.369415 
	C241.807480,214.344879 241.583939,214.250732 241.328644,213.794159 
z"/>
<path fill="#50623A" opacity="1.000000" stroke="none" 
	d="
M265.497559,89.505402 
	C265.491486,89.487076 265.503632,89.523735 265.497559,89.505402 
z"/>
<path fill="#50623A" opacity="1.000000" stroke="none" 
	d="
M264.497559,86.505386 
	C264.491516,86.487099 264.503571,86.523682 264.497559,86.505386 
z"/>
<path fill="#50623A" opacity="1.000000" stroke="none" 
	d="
M215.505402,78.502388 
	C215.487152,78.508369 215.523651,78.496407 215.505402,78.502388 
z"/>
<path fill="#E9EAD0" opacity="1.000000" stroke="none" 
	d="
M238.680176,216.572556 
	C238.603027,216.024872 238.808716,215.773895 239.248444,215.413895 
	C239.656921,215.336090 239.861511,215.392029 240.239929,215.714020 
	C240.439697,216.416382 240.317703,216.802216 239.732544,217.256378 
	C239.273041,217.204132 239.102966,217.024323 238.680176,216.572556 
z"/>
<path fill="#E9EAD0" opacity="1.000000" stroke="none" 
	d="
M240.377014,214.751740 
	C240.436646,214.148575 240.642349,213.905762 241.101807,213.572144 
	C241.484009,213.594009 241.671112,213.756302 242.136917,214.164261 
	C242.283554,214.832321 242.020950,215.151810 241.325623,215.400787 
	C240.823883,215.299149 240.644196,215.180801 240.377014,214.751740 
z"/>
<path fill="#EBECD2" opacity="1.000000" stroke="none" 
	d="
M243.445831,213.416138 
	C243.130264,213.152206 243.099380,212.889053 243.022995,212.231110 
	C242.977493,211.836288 243.111282,211.377975 243.301666,211.233963 
	C243.647766,211.225327 243.803482,211.360703 244.171997,211.721024 
	C244.369812,212.151978 244.354843,212.357956 244.143814,212.803741 
	C243.947739,213.043564 243.992935,212.990753 244.015182,212.964050 
	C243.935120,213.097229 243.832825,213.257080 243.445831,213.416138 
z"/>
<path fill="#E3E5CA" opacity="1.000000" stroke="none" 
	d="
M202.024719,252.013977 
	C202.045776,251.659088 201.998260,250.992950 202.066742,250.980804 
	C202.605240,250.885284 202.815140,251.168076 202.307327,251.851791 
	C201.999954,251.999969 202.009918,252.005707 202.024719,252.013977 
z"/>
<path fill="#EBECD2" opacity="1.000000" stroke="none" 
	d="
M243.661194,211.367798 
	C243.556320,210.889099 243.672440,210.724884 243.976044,210.527313 
	C244.279465,210.563797 244.447220,210.670242 244.859909,210.946472 
	C245.170105,211.287994 245.235397,211.459717 245.120850,211.840210 
	C244.940994,212.048996 244.997849,211.992798 245.026123,211.964539 
	C244.930435,212.048035 244.806473,212.159821 244.435608,212.230133 
	C244.069244,212.007660 243.949799,211.826660 243.661194,211.367798 
z"/>
<path fill="#E9EAD0" opacity="1.000000" stroke="none" 
	d="
M239.688843,215.566345 
	C239.581345,215.042526 239.749725,214.837128 240.123505,214.552521 
	C240.479141,214.600327 240.668716,214.759583 241.136841,215.164490 
	C241.369675,215.769760 241.200470,216.060577 240.668884,216.351837 
	C240.250839,216.225494 240.088089,216.039017 239.688843,215.566345 
z"/>
<path fill="#55663F" opacity="1.000000" stroke="none" 
	d="
M245.993042,197.390305 
	C249.942688,190.799194 253.295654,183.912384 257.057190,177.259796 
	C261.235291,169.870438 264.312958,168.884308 272.376434,172.087524 
	C273.291443,172.451004 274.249268,172.706543 275.587646,173.126831 
	C276.625366,173.445358 277.229309,173.192871 278.159729,173.092834 
	C280.087372,172.565353 281.807007,172.985138 283.725525,172.422241 
	C284.232025,172.290237 284.438446,172.252457 284.959473,172.203979 
	C287.646790,172.806152 288.011688,169.614487 290.473938,169.660538 
	C292.925842,169.706375 291.944885,170.646210 291.521606,172.020233 
	C291.397614,172.753204 291.498322,173.148849 291.967743,173.388580 
	C297.962952,167.484329 297.414185,161.787766 290.316986,155.939911 
	C289.877747,155.622864 289.719543,155.515991 289.777405,155.221130 
	C292.843964,154.559479 288.678467,151.469757 291.432526,151.076385 
	C293.948334,150.717041 296.068268,151.957932 297.675568,153.639801 
	C306.165009,162.523193 306.311310,162.989975 298.415009,171.349533 
	C291.915436,178.230453 283.511261,182.544937 274.371857,184.801376 
	C266.714844,186.691818 260.291718,191.216354 252.970535,193.747086 
	C251.715363,194.180969 250.865402,195.787155 249.512604,196.982819 
	C248.333603,197.652618 247.419373,197.935349 245.993042,197.390305 
z"/>
<path fill="#5C6D46" opacity="1.000000" stroke="none" 
	d="
M221.704803,90.023376 
	C222.711731,90.225357 223.434021,90.604683 224.435257,91.120659 
	C226.034882,93.904282 228.547516,95.474327 230.738647,97.745316 
	C240.003036,107.428085 250.673508,115.157013 260.002808,124.551979 
	C258.032074,125.611252 257.105072,124.249153 256.137909,123.567970 
	C248.393906,118.113579 240.636581,112.672195 233.039230,107.017380 
	C227.319870,102.760376 223.112152,97.312424 221.704803,90.023376 
z"/>
<path fill="#5C6D46" opacity="1.000000" stroke="none" 
	d="
M221.252228,111.637657 
	C222.111359,115.385918 225.900101,115.137535 228.643890,116.631699 
	C236.455368,120.885521 244.007797,125.615005 251.473709,130.585098 
	C242.291550,128.803009 233.129486,126.989975 225.111511,121.943558 
	C222.128159,120.065865 219.165939,117.700417 219.918427,113.203102 
	C220.441574,112.591743 220.766006,112.249413 221.252228,111.637657 
z"/>
<path fill="#5C6D46" opacity="1.000000" stroke="none" 
	d="
M232.730301,110.265366 
	C238.416183,114.966385 243.830414,119.437775 249.244659,123.909157 
	C248.994049,124.228424 248.743439,124.547691 248.492828,124.866951 
	C238.627716,118.143082 225.341003,116.085464 218.826736,102.334961 
	C224.983551,104.015480 229.068054,106.407677 232.730301,110.265366 
z"/>
<path fill="#5C6D46" opacity="1.000000" stroke="none" 
	d="
M243.194885,131.845093 
	C247.035645,133.076065 250.502686,134.184631 254.132477,135.345245 
	C246.035461,139.762695 229.206070,135.337769 224.320923,127.603348 
	C230.924042,127.227226 236.940155,129.165268 243.194885,131.845093 
z"/>
<path fill="#5C6D46" opacity="1.000000" stroke="none" 
	d="
M235.943176,137.779785 
	C243.166245,139.317795 250.038254,140.306564 257.209412,140.987244 
	C249.185577,146.746399 235.466461,145.542130 228.588470,138.294540 
	C231.127197,138.099426 233.315674,137.931244 235.943176,137.779785 
z"/>
<path fill="#5C6D46" opacity="1.000000" stroke="none" 
	d="
M236.500519,150.996155 
	C235.366074,149.894424 233.529175,149.976776 233.402710,148.456970 
	C233.386398,148.261032 235.010788,147.928589 236.157928,147.456238 
	C243.332108,146.144318 250.382858,147.227142 257.612976,145.863174 
	C251.869400,151.492081 244.771484,152.872604 236.500519,150.996155 
z"/>
<path fill="#5C6D46" opacity="1.000000" stroke="none" 
	d="
M259.260437,149.843109 
	C253.050247,157.327545 245.004440,159.749771 238.142731,156.349930 
	C244.383743,152.760910 251.668396,152.834183 258.143250,149.512711 
	C258.748016,149.395935 259.011810,149.420944 259.260437,149.843109 
z"/>
<path fill="#5C6D46" opacity="1.000000" stroke="none" 
	d="
M260.635895,154.189331 
	C256.237244,162.242554 251.216232,164.462662 244.519318,161.420349 
	C249.205750,158.300140 254.824860,157.390930 259.506439,153.941376 
	C260.060242,153.848083 260.282562,153.864853 260.635895,154.189331 
z"/>
<path fill="#64744D" opacity="1.000000" stroke="none" 
	d="
M289.917908,154.701660 
	C289.993439,155.033157 290.049469,155.379333 290.042694,155.554535 
	C282.133545,152.472427 279.211792,145.069397 275.394592,137.977020 
	C275.209137,137.316696 275.157410,136.979736 275.600464,136.771667 
	C280.937988,142.518890 283.857788,149.650391 289.917908,154.701660 
z"/>
<path fill="#64744D" opacity="1.000000" stroke="none" 
	d="
M262.661682,162.814392 
	C261.209747,161.066864 260.884979,163.774643 259.838684,164.226959 
	C257.115692,165.404129 254.590073,166.958466 251.052338,164.746262 
	C256.046356,162.760361 260.211609,160.314346 263.424042,156.137177 
	C264.887970,158.986130 262.294128,160.579865 262.661682,162.814392 
z"/>
<path fill="#73815D" opacity="1.000000" stroke="none" 
	d="
M245.330948,197.279724 
	C246.491455,197.113419 247.393143,197.116898 248.745880,197.117096 
	C246.583740,202.625671 240.928299,204.984253 236.560806,209.126785 
	C235.949615,209.284164 235.651825,209.317368 235.385925,208.902283 
	C238.635910,204.785828 241.854004,201.117676 245.330948,197.279724 
z"/>
<path fill="#73815D" opacity="1.000000" stroke="none" 
	d="
M277.809967,174.135620 
	C277.018463,173.860367 276.621765,173.733826 276.106537,173.424408 
	C277.164673,172.345535 278.341309,171.449539 279.729095,169.800919 
	C282.463776,168.190323 284.206635,168.818405 285.043945,171.900833 
	C285.274048,172.193283 285.149841,172.205627 285.140564,172.143890 
	C283.156525,173.866943 280.927399,174.851807 277.809967,174.135620 
z"/>
<path fill="#73815D" opacity="1.000000" stroke="none" 
	d="
M280.385498,166.783676 
	C280.178680,167.662018 280.062927,168.050781 279.943726,168.743927 
	C279.940277,169.048294 279.988281,168.996094 280.011810,168.969574 
	C279.790741,169.182724 279.547760,169.424042 279.126831,169.850601 
	C278.947296,170.034286 278.997253,169.989136 279.021790,169.966110 
	C277.140289,169.838013 275.497009,171.886063 273.134186,170.432220 
	C274.886841,168.784821 275.529877,165.823486 279.223511,166.661652 
	C279.840057,166.482941 280.158325,166.388519 280.385498,166.783676 
z"/>
<path fill="#64744D" opacity="1.000000" stroke="none" 
	d="
M263.924011,168.264145 
	C264.173737,167.481888 264.390381,167.000458 264.271027,166.290161 
	C267.077332,166.743179 266.900574,162.720856 269.861969,161.941315 
	C270.442902,166.027466 267.930786,167.272568 264.840942,168.437729 
	C264.292999,168.530304 264.091980,168.547638 263.924011,168.264145 
z"/>
<path fill="#64744D" opacity="1.000000" stroke="none" 
	d="
M264.021606,165.975235 
	C262.500458,166.111465 261.217194,167.793854 259.340393,166.648697 
	C260.530426,165.621521 261.709106,164.604126 263.009247,163.264191 
	C263.130676,162.941635 263.055695,163.002716 263.026794,163.041260 
	C263.867065,162.503906 264.736267,161.928009 265.701233,161.288681 
	C266.170776,163.273407 264.769226,164.186371 263.972595,165.722412 
	C263.935028,166.061295 263.992706,166.003876 264.021606,165.975235 
z"/>
<path fill="#64744D" opacity="1.000000" stroke="none" 
	d="
M269.625000,139.926086 
	C268.161316,143.718338 265.399078,142.361389 262.681671,141.267456 
	C264.883972,140.805405 267.086243,140.343353 269.625000,139.926086 
z"/>
<path fill="#73815D" opacity="1.000000" stroke="none" 
	d="
M304.666870,145.014954 
	C306.178040,143.857498 307.510590,143.541992 308.873383,145.562439 
	C307.265717,146.362411 305.923096,146.343262 304.666870,145.014954 
z"/>
<path fill="#73815D" opacity="1.000000" stroke="none" 
	d="
M240.299423,216.617203 
	C240.720261,216.287033 240.974564,216.093353 241.295944,215.620529 
	C241.731644,215.299286 241.989899,215.109497 242.302887,214.625366 
	C242.725739,214.330307 242.946533,214.144547 243.119598,213.634003 
	C243.318130,213.355728 243.475113,213.296127 243.834763,213.086945 
	C243.584503,215.677658 241.280304,217.024796 239.276855,218.956329 
	C239.028671,218.691818 239.100082,218.309708 239.307312,217.655762 
	C239.742172,217.265076 239.989563,217.077911 240.299423,216.617203 
z"/>
<path fill="#73815D" opacity="1.000000" stroke="none" 
	d="
M264.898254,137.034729 
	C265.850739,137.107513 266.917419,136.949890 267.083740,137.265991 
	C267.712433,138.460876 266.396393,138.543243 265.876495,138.489578 
	C264.866272,138.385254 263.283295,139.071106 263.141541,137.127747 
	C263.627380,137.092453 264.113220,137.057144 264.898254,137.034729 
z"/>
<path fill="#73815D" opacity="1.000000" stroke="none" 
	d="
M263.163116,119.269150 
	C264.612061,119.980240 265.409149,121.146088 263.819397,122.969307 
	C262.085724,122.155792 260.968903,121.096855 263.163116,119.269150 
z"/>
<path fill="#E3E5CA" opacity="1.000000" stroke="none" 
	d="
M273.033722,131.076508 
	C273.289124,131.005707 273.555145,130.966187 273.558594,131.047256 
	C273.220276,131.586029 272.885223,132.049500 272.512878,132.480804 
	C272.497589,132.498520 272.132263,132.214050 271.930023,132.070358 
	C272.212769,131.762665 272.495544,131.454971 273.033722,131.076508 
z"/>
<path fill="#E9EAD0" opacity="1.000000" stroke="none" 
	d="
M206.491608,234.700592 
	C206.640060,235.011978 206.644577,235.270706 206.649094,235.529434 
	C206.388657,235.437393 206.128220,235.345352 205.867783,235.253296 
	C206.027756,235.051514 206.187729,234.849731 206.491608,234.700592 
z"/>
<path fill="#73815D" opacity="1.000000" stroke="none" 
	d="
M223.548767,230.006042 
	C222.494766,231.048813 221.580338,231.244980 220.619308,230.642426 
	C221.116699,230.368256 221.614075,230.094070 222.416672,229.761536 
	C223.051270,229.645874 223.380646,229.588501 223.548767,230.006042 
z"/>
<path fill="#73815D" opacity="1.000000" stroke="none" 
	d="
M232.953217,211.274261 
	C233.310669,210.564774 233.653397,210.156677 234.220428,209.590027 
	C234.679306,209.428299 234.913879,209.425125 235.140320,209.773743 
	C234.759354,210.514008 234.386505,210.902451 233.777832,211.434479 
	C233.340820,211.577240 233.139648,211.576447 232.953217,211.274261 
z"/>
<path fill="#50623A" opacity="1.000000" stroke="none" 
	d="
M233.007767,231.316528 
	C232.356705,231.615402 231.722687,231.953262 231.747208,231.209625 
	C231.758087,230.879990 232.098251,230.418732 232.409241,230.271805 
	C233.014832,229.985641 233.103714,230.583908 233.007767,231.316528 
z"/>
<path fill="#73815D" opacity="1.000000" stroke="none" 
	d="
M279.714905,166.751404 
	C279.876068,166.283142 280.230408,165.988892 280.584717,165.694656 
	C280.625000,166.129471 280.665253,166.564285 280.500000,167.136169 
	C280.165680,167.157303 280.036865,167.041367 279.714905,166.751404 
z"/>
<path fill="#73815D" opacity="1.000000" stroke="none" 
	d="
M222.888748,229.897232 
	C223.197449,229.400604 223.673004,229.098007 224.429260,228.723877 
	C224.828461,228.786194 224.946960,228.920044 225.243195,229.256195 
	C224.923615,229.736053 224.426300,230.013626 223.658234,230.386063 
	C223.276855,230.351028 223.166229,230.221146 222.888748,229.897232 
z"/>
<path fill="#64744D" opacity="1.000000" stroke="none" 
	d="
M274.992950,136.031067 
	C275.272186,136.039398 275.199005,136.062653 275.162598,136.050140 
	C275.343994,136.118195 275.561829,136.198761 275.937500,136.589935 
	C275.957489,137.027466 275.819702,137.154388 275.471436,137.467468 
	C275.037598,137.123718 273.730652,136.957382 274.992950,136.031067 
z"/>
<path fill="#73815D" opacity="1.000000" stroke="none" 
	d="
M235.230865,222.246796 
	C235.434799,221.567780 235.939072,221.110779 236.760376,220.815811 
	C236.562012,221.474823 236.046616,221.971817 235.230865,222.246796 
z"/>
<path fill="#5C6D46" opacity="1.000000" stroke="none" 
	d="
M260.485535,125.208847 
	C260.743530,125.872498 261.022675,126.768677 260.038361,126.244064 
	C259.508728,125.961777 259.284454,125.337418 260.485535,125.208847 
z"/>
<path fill="#64744D" opacity="1.000000" stroke="none" 
	d="
M270.037048,140.039490 
	C270.129669,139.842361 270.197357,139.622131 270.265015,139.401886 
	C270.293457,139.578140 270.321869,139.754395 270.155884,139.950775 
	C269.961487,139.970886 270.012115,140.016357 270.037048,140.039490 
z"/>
<path fill="#64744D" opacity="1.000000" stroke="none" 
	d="
M260.549561,140.458542 
	C260.513702,140.466629 260.585419,140.450455 260.549561,140.458542 
z"/>
<path fill="#50623A" opacity="1.000000" stroke="none" 
	d="
M220.835846,111.190796 
	C221.088882,111.680801 220.850555,112.075653 220.408081,112.743416 
	C220.250793,112.376099 220.297638,111.735863 220.835846,111.190796 
z"/>
<path fill="#E3E5CA" opacity="1.000000" stroke="none" 
	d="
M282.489807,141.472778 
	C282.517456,141.459732 282.462128,141.485825 282.489807,141.472778 
z"/>
<path fill="#50623A" opacity="1.000000" stroke="none" 
	d="
M223.394836,100.748062 
	C224.133331,101.266418 224.749786,102.141129 222.756683,101.751358 
	C222.686157,101.388199 222.886780,101.203262 223.394836,100.748062 
z"/>
<path fill="#73815D" opacity="1.000000" stroke="none" 
	d="
M236.041611,209.050003 
	C236.037125,209.500595 235.826874,209.750259 235.374390,210.062714 
	C235.132172,210.125534 234.783981,209.784180 234.614349,209.607834 
	C234.613495,209.170578 234.815155,208.938187 235.233749,208.594147 
	C235.557144,208.585678 235.696487,208.717377 236.041611,209.050003 
z"/>
<path fill="#73815D" opacity="1.000000" stroke="none" 
	d="
M245.177094,212.042084 
	C244.940994,212.048996 245.040878,211.585800 245.072845,211.351044 
	C245.311676,211.305023 245.525391,211.487686 245.710129,211.696045 
	C245.722687,211.710205 245.517258,211.917633 245.177094,212.042084 
z"/>
<path fill="#73815D" opacity="1.000000" stroke="none" 
	d="
M244.149368,212.408295 
	C244.188690,212.188660 244.632416,212.099762 244.843414,212.018005 
	C244.879333,212.272003 244.704285,212.607727 244.238495,212.993500 
	C243.947739,213.043564 244.110046,212.627914 244.149368,212.408295 
z"/>
<path fill="#73815D" opacity="1.000000" stroke="none" 
	d="
M238.231140,219.988708 
	C238.104218,219.710373 238.251114,219.347977 238.733856,218.966797 
	C238.881439,219.266891 238.693176,219.585785 238.231140,219.988708 
z"/>
<path fill="#73815D" opacity="1.000000" stroke="none" 
	d="
M237.230499,220.989594 
	C237.093704,220.668884 237.229538,220.264893 237.719131,219.909378 
	C237.882965,220.274017 237.693054,220.590164 237.230499,220.989594 
z"/>
<path fill="#73815D" opacity="1.000000" stroke="none" 
	d="
M234.320724,223.096222 
	C234.122742,222.714539 234.289383,222.382492 234.751114,221.994507 
	C234.925919,222.341003 234.805634,222.743439 234.320724,223.096222 
z"/>
<path fill="#50623A" opacity="1.000000" stroke="none" 
	d="
M210.365814,240.748779 
	C210.840866,240.186371 211.575562,239.576187 211.422104,241.050568 
	C210.961502,241.157196 210.729599,241.116760 210.365814,240.748779 
z"/>
<path fill="#50623A" opacity="1.000000" stroke="none" 
	d="
M210.954193,241.002716 
	C210.815552,241.679047 210.463669,242.259048 209.716827,242.006287 
	C209.021408,241.770935 209.429855,241.305008 209.895660,240.666397 
	C210.394272,240.550110 210.554611,240.678970 210.954193,241.002716 
z"/>
<path fill="#5C6D46" opacity="1.000000" stroke="none" 
	d="
M258.066956,146.047287 
	C258.113007,145.829895 258.097992,145.395309 258.149933,145.387131 
	C258.627716,145.312134 258.718658,145.507446 258.193420,145.931824 
	C257.979156,145.985931 258.036957,146.027893 258.066956,146.047287 
z"/>
<path fill="#73815D" opacity="1.000000" stroke="none" 
	d="
M233.401733,211.423660 
	C233.182861,211.660248 232.823746,211.742462 232.464615,211.824692 
	C232.470413,211.598053 232.476227,211.371429 232.724976,211.058838 
	C232.967926,210.972870 233.261459,211.269287 233.401733,211.423660 
z"/>
<path fill="#50623A" opacity="1.000000" stroke="none" 
	d="
M247.265579,204.790970 
	C247.263336,204.481049 247.498581,204.402039 247.733826,204.322998 
	C247.656891,204.555954 247.579971,204.788925 247.265579,204.790970 
z"/>
<path fill="#64744D" opacity="1.000000" stroke="none" 
	d="
M264.361816,168.373535 
	C264.104858,168.553055 263.385986,169.382782 263.749939,168.039520 
	C263.957092,167.963318 264.229645,168.234116 264.361816,168.373535 
z"/>
<path fill="#5C6D46" opacity="1.000000" stroke="none" 
	d="
M260.065796,154.003906 
	C260.141968,153.649002 260.445984,153.466660 260.750000,153.284332 
	C260.826172,153.526901 260.902313,153.769485 260.872681,154.254547 
	C260.609161,154.390167 260.451416,154.283325 260.065796,154.003906 
z"/>
<path fill="#5C6D46" opacity="1.000000" stroke="none" 
	d="
M258.670349,149.591888 
	C259.101196,149.120819 259.909729,148.459869 259.481079,150.093079 
	C259.115723,150.097809 258.986115,149.955338 258.670349,149.591888 
z"/>
<path fill="#5C6D46" opacity="1.000000" stroke="none" 
	d="
M190.423492,278.053467 
	C189.985703,282.338409 186.933914,281.699310 184.427689,281.573456 
	C181.853043,281.444214 182.535461,279.188995 182.697021,277.749878 
	C183.032745,274.759186 186.843170,274.746338 190.423492,278.053467 
z"/>
<path fill="#55663F" opacity="1.000000" stroke="none" 
	d="
M190.254227,287.580017 
	C191.299530,292.733246 187.902069,292.297729 184.961243,292.273468 
	C181.584457,292.245605 182.239212,289.274475 182.826431,287.960052 
	C184.567123,284.063904 187.449921,286.065186 190.254227,287.580017 
z"/>
<path fill="#50623A" opacity="1.000000" stroke="none" 
	d="
M229.527802,275.896179 
	C232.314713,277.058228 232.762253,278.897980 231.314789,280.805969 
	C229.786560,282.820435 227.279175,282.255768 225.263794,281.877930 
	C222.868225,281.428802 223.859283,279.114075 224.020126,277.730194 
	C224.429901,274.204163 227.286194,276.197937 229.527802,275.896179 
z"/>
<path fill="#50623A" opacity="1.000000" stroke="none" 
	d="
M252.819107,275.733459 
	C257.696320,275.311096 259.270111,277.558228 258.989594,281.695465 
	C258.855133,283.678375 258.962219,285.677521 258.956757,287.669312 
	C258.947540,291.025482 257.153290,292.227692 253.924072,292.388947 
	C250.071106,292.581390 250.693924,290.042328 250.680481,287.782837 
	C250.662704,284.795258 250.645737,281.806793 250.701523,278.820068 
	C250.725037,277.561890 250.410019,276.020508 252.819107,275.733459 
z"/>
<path fill="#5C6D46" opacity="1.000000" stroke="none" 
	d="
M279.808411,331.432709 
	C279.813507,334.193634 279.860596,336.509552 279.790009,338.821838 
	C279.678955,342.458618 277.496735,343.461334 274.174377,343.487183 
	C270.195984,343.518097 271.330627,340.723419 271.232513,338.642487 
	C271.123657,336.333252 271.038208,333.998444 271.261108,331.705750 
	C271.440765,329.857941 269.944916,327.027893 273.457153,326.663940 
	C276.710907,326.326782 279.512787,326.867065 279.808411,331.432709 
z"/>
<path fill="#50623A" opacity="1.000000" stroke="none" 
	d="
M266.763977,111.128220 
	C266.789795,111.290352 266.664001,111.566231 266.289948,111.791191 
	C266.221680,111.562469 266.411926,111.396370 266.763977,111.128220 
z"/>
<path fill="#64744D" opacity="1.000000" stroke="none" 
	d="
M218.815475,339.868988 
	C216.583771,339.863983 214.521774,340.194946 215.711990,337.088074 
	C216.691757,334.530609 216.827316,331.663177 218.697708,328.903290 
	C219.605957,331.937805 220.330826,334.624664 221.222946,337.254822 
	C221.912872,339.288849 221.184799,340.005646 218.815475,339.868988 
z"/>
<path fill="#EBECD2" opacity="1.000000" stroke="none" 
	d="
M277.745331,174.249908 
	C279.899078,173.881546 282.218628,173.221512 284.741455,172.006912 
	C283.443817,175.170319 282.811737,175.388077 277.745331,174.249908 
z"/>
<path fill="#EBECD2" opacity="1.000000" stroke="none" 
	d="
M292.028320,173.026428 
	C291.768951,174.012817 291.144165,174.249939 290.395447,173.686996 
	C290.344116,173.648422 290.719360,173.042450 291.134644,172.518768 
	C291.518860,172.490128 291.664734,172.643051 292.028320,173.026428 
z"/>
<path fill="#EBECD2" opacity="1.000000" stroke="none" 
	d="
M279.331390,170.157227 
	C279.113983,169.700516 279.280670,169.366730 279.741333,168.988007 
	C280.362549,169.492538 280.255463,169.938110 279.331390,170.157227 
z"/>
</svg>